<svg width="640" height="400" viewBox="0 0 640 400" fill="none" xmlns="http://www.w3.org/2000/svg">
  <rect width="640" height="400" rx="28" fill="#F8FAFC"/>
  <rect x="54" y="26" width="532" height="348" rx="24" fill="#F8FAFC" stroke="#CBD5E1"/>
  <rect x="92" y="54" width="356" height="222" fill="white"/>
  <line x1="120" y1="54" x2="120" y2="276" stroke="#E2E8F0"/>
  <text x="138" y="82" fill="#334155" font-family="Georgia, serif" font-size="14" font-weight="700">Charles Bloomberg</text>
  <rect x="138" y="92" width="112" height="4" rx="2" fill="#94A3B8"/>
  <rect x="138" y="118" width="88" height="7" rx="3.5" fill="#334155"/>
  <rect x="138" y="134" width="232" height="4" rx="2" fill="#E2E8F0"/>
  <rect x="138" y="143" width="216" height="4" rx="2" fill="#E2E8F0"/>
  <rect x="138" y="168" width="92" height="7" rx="3.5" fill="#334155"/>
  <rect x="138" y="184" width="242" height="4" rx="2" fill="#E2E8F0"/>
  <rect x="138" y="193" width="228" height="4" rx="2" fill="#E2E8F0"/>
  <rect x="138" y="218" width="74" height="7" rx="3.5" fill="#334155"/>
  <rect x="138" y="233" width="94" height="10" rx="5" fill="#E2E8F0"/>
  <rect x="238" y="233" width="88" height="10" rx="5" fill="#E2E8F0"/>
  <rect x="92" y="276" width="356" height="66" fill="#E9EDF3"/>
  <text x="92" y="329" fill="#18212F" font-family="Inter, Arial, sans-serif" font-size="26" font-weight="700">Academic</text>
</svg>
