<svg width="640" height="400" viewBox="0 0 640 400" fill="none" xmlns="http://www.w3.org/2000/svg">
<rect width="640" height="400" rx="28" fill="#F8FAFC"/>
<rect x="54" y="26" width="532" height="348" rx="24" fill="#EEF2F7" stroke="#D7DEE9"/>
<rect x="92" y="54" width="356" height="222" fill="#FFFDF5"/>
<line x1="118" y1="54" x2="118" y2="276" stroke="#F0D987"/>
<line x1="438" y1="54" x2="438" y2="276" stroke="#F0D987"/>
<text x="136" y="82" fill="#18212F" font-family="Inter, Arial, sans-serif" font-size="11.5" font-weight="700">Charles Bloomberg</text>
<rect x="136" y="92" width="84" height="5" rx="2.5" fill="#7D8795"/>
<rect x="370" y="70" width="54" height="12" rx="6" fill="#FDE9AA"/>
<line x1="136" y1="122" x2="416" y2="122" stroke="#F4A128" stroke-width="1.4"/>
<rect x="136" y="144" width="96" height="7" rx="3.5" fill="#1A2235"/>
<rect x="136" y="162" width="232" height="5" rx="2.5" fill="#E1E5EB"/>
<rect x="136" y="172" width="220" height="5" rx="2.5" fill="#E1E5EB"/>
<rect x="136" y="196" width="112" height="7" rx="3.5" fill="#1A2235"/>
<rect x="136" y="214" width="244" height="5" rx="2.5" fill="#E1E5EB"/>
<rect x="136" y="224" width="228" height="5" rx="2.5" fill="#E1E5EB"/>
<rect x="92" y="276" width="356" height="66" fill="#E9EDF3"/>
<text x="92" y="329" fill="#18212F" font-family="Inter, Arial, sans-serif" font-size="26" font-weight="700">Consulting</text>
</svg>
