<svg width="640" height="400" viewBox="0 0 640 400" fill="none" xmlns="http://www.w3.org/2000/svg">
<rect width="640" height="400" rx="28" fill="#F8FAFC"/>
<rect x="54" y="26" width="532" height="348" rx="24" fill="#EEF2F7" stroke="#D7DEE9"/>
<rect x="92" y="54" width="356" height="222" fill="#FFF8F0"/>
<rect x="92" y="54" width="82" height="222" fill="#FF6E12"/>
<rect x="111" y="74" width="40" height="58" rx="12" fill="#FFC07A"/>
<rect x="112" y="154" width="38" height="6" rx="3" fill="#FFF2E2"/>
<rect x="112" y="166" width="42" height="6" rx="3" fill="#FFF2E2"/>
<rect x="112" y="178" width="36" height="6" rx="3" fill="#FFF2E2"/>
<text x="194" y="82" fill="#1C2433" font-family="Inter, Arial, sans-serif" font-size="11.5" font-weight="700">Charles Bloomberg</text>
<rect x="194" y="94" width="92" height="5" rx="2.5" fill="#98A2B3"/>
<rect x="194" y="123" width="214" height="5" rx="2.5" fill="#E1E5EB"/>
<rect x="194" y="133" width="232" height="5" rx="2.5" fill="#E1E5EB"/>
<text x="194" y="168" fill="#1C2433" font-family="Inter, Arial, sans-serif" font-size="8" font-weight="700">EXPERIENCE</text>
<rect x="194" y="176" width="86" height="5" rx="2.5" fill="#1C2433"/>
<rect x="194" y="192" width="230" height="5" rx="2.5" fill="#E1E5EB"/>
<rect x="194" y="202" width="218" height="5" rx="2.5" fill="#E1E5EB"/>
<rect x="194" y="224" width="58" height="12" rx="6" fill="#FFE7C9"/>
<rect x="260" y="224" width="60" height="12" rx="6" fill="#FCE1E7"/>
<rect x="92" y="276" width="356" height="66" fill="#E9EDF3"/>
<text x="92" y="329" fill="#18212F" font-family="Inter, Arial, sans-serif" font-size="26" font-weight="700">Creative</text>
</svg>
