<svg width="640" height="400" viewBox="0 0 640 400" fill="none" xmlns="http://www.w3.org/2000/svg">
  <rect width="640" height="400" rx="28" fill="#F8FAFC"/>
  <rect x="54" y="26" width="532" height="348" rx="24" fill="#FFF7ED" stroke="#FED7AA"/>
  <rect x="92" y="54" width="356" height="222" fill="white"/>
  <rect x="92" y="54" width="94" height="222" fill="#FFEDD5"/>
  <circle cx="139" cy="92" r="24" fill="#FDBA74"/>
  <rect x="112" y="132" width="56" height="7" rx="3.5" fill="#C2410C"/>
  <rect x="112" y="146" width="46" height="7" rx="3.5" fill="#FB923C"/>
  <rect x="112" y="160" width="54" height="7" rx="3.5" fill="#FDBA74"/>
  <rect x="208" y="80" width="176" height="9" rx="4.5" fill="#9A3412"/>
  <rect x="208" y="96" width="96" height="6" rx="3" fill="#FB923C"/>
  <rect x="208" y="124" width="220" height="6" rx="3" fill="#E2E8F0"/>
  <rect x="208" y="136" width="206" height="6" rx="3" fill="#E2E8F0"/>
  <rect x="208" y="156" width="82" height="8" rx="4" fill="#C2410C"/>
  <rect x="208" y="172" width="232" height="5" rx="2.5" fill="#E2E8F0"/>
  <rect x="208" y="182" width="214" height="5" rx="2.5" fill="#E2E8F0"/>
  <rect x="208" y="214" width="72" height="12" rx="6" fill="#FDBA74"/>
  <rect x="288" y="214" width="62" height="12" rx="6" fill="#FED7AA"/>
  <rect x="358" y="214" width="68" height="12" rx="6" fill="#FFEDD5"/>
  <rect x="92" y="276" width="356" height="66" fill="#E9EDF3"/>
  <text x="92" y="329" fill="#18212F" font-family="Inter, Arial, sans-serif" font-size="26" font-weight="700">Designer</text>
</svg>
