<svg width="640" height="400" viewBox="0 0 640 400" fill="none" xmlns="http://www.w3.org/2000/svg">
<rect width="640" height="400" rx="28" fill="#F8FAFC"/>
<rect x="54" y="26" width="532" height="348" rx="24" fill="#EEF2F7" stroke="#D7DEE9"/>
<rect x="92" y="54" width="356" height="222" fill="white"/>
<path d="M92 54H448V82C448 93.0457 439.046 102 428 102H112C100.954 102 92 93.0457 92 82V54Z" fill="#131A2E"/>
<rect x="116" y="63" width="108" height="11" rx="5.5" fill="#F9FAFB"/>
<rect x="116" y="83" width="60" height="6" rx="3" fill="#CBD5E1"/>
<rect x="352" y="63" width="58" height="8" rx="4" fill="#334155"/>
<rect x="352" y="79" width="52" height="8" rx="4" fill="#334155"/>
<text x="118" y="133" fill="#18212F" font-family="Inter, Arial, sans-serif" font-size="8" font-weight="700">EXECUTIVE SUMMARY</text>
<rect x="118" y="141" width="260" height="5" rx="2.5" fill="#DDE4ED"/>
<rect x="118" y="151" width="246" height="5" rx="2.5" fill="#DDE4ED"/>
<rect x="118" y="161" width="224" height="5" rx="2.5" fill="#DDE4ED"/>
<text x="118" y="193" fill="#18212F" font-family="Inter, Arial, sans-serif" font-size="8" font-weight="700">LEADERSHIP EXPERIENCE</text>
<rect x="118" y="201" width="88" height="5" rx="2.5" fill="#1A2235"/>
<rect x="118" y="217" width="248" height="5" rx="2.5" fill="#DDE4ED"/>
<rect x="118" y="227" width="230" height="5" rx="2.5" fill="#DDE4ED"/>
<rect x="92" y="276" width="356" height="66" fill="#E9EDF3"/>
<text x="92" y="329" fill="#18212F" font-family="Inter, Arial, sans-serif" font-size="26" font-weight="700">Executive</text>
</svg>
