<svg width="640" height="400" viewBox="0 0 640 400" fill="none" xmlns="http://www.w3.org/2000/svg">
  <rect width="640" height="400" rx="28" fill="#F8FAFC"/>
  <rect x="54" y="26" width="532" height="348" rx="24" fill="#F0FDFA" stroke="#99F6E4"/>
  <rect x="92" y="54" width="356" height="222" fill="white"/>
  <rect x="92" y="54" width="356" height="40" fill="#0F766E"/>
  <rect x="116" y="68" width="106" height="12" rx="6" fill="#CCFBF1"/>
  <rect x="330" y="68" width="92" height="12" rx="6" fill="#99F6E4"/>
  <rect x="118" y="112" width="84" height="8" rx="4" fill="#0F766E"/>
  <rect x="118" y="128" width="234" height="5" rx="2.5" fill="#E2E8F0"/>
  <rect x="118" y="138" width="216" height="5" rx="2.5" fill="#E2E8F0"/>
  <rect x="118" y="164" width="310" height="44" rx="10" fill="#ECFEFF"/>
  <rect x="132" y="180" width="58" height="12" rx="6" fill="#2DD4BF"/>
  <rect x="198" y="172" width="58" height="20" rx="10" fill="#14B8A6"/>
  <rect x="264" y="162" width="58" height="30" rx="10" fill="#0D9488"/>
  <rect x="330" y="152" width="58" height="40" rx="10" fill="#0F766E"/>
  <rect x="118" y="222" width="90" height="8" rx="4" fill="#0F766E"/>
  <rect x="118" y="238" width="242" height="5" rx="2.5" fill="#E2E8F0"/>
  <rect x="92" y="276" width="356" height="66" fill="#E9EDF3"/>
  <text x="92" y="329" fill="#18212F" font-family="Inter, Arial, sans-serif" font-size="26" font-weight="700">Finance</text>
</svg>
