<svg width="640" height="400" viewBox="0 0 640 400" fill="none" xmlns="http://www.w3.org/2000/svg">
<rect width="640" height="400" rx="28" fill="#F8FAFC"/>
<rect x="54" y="26" width="532" height="348" rx="24" fill="#EEF2F7" stroke="#D7DEE9"/>
<rect x="92" y="54" width="356" height="222" fill="white"/>
<rect x="92" y="54" width="356" height="34" fill="#E9F2FF"/>
<text x="270" y="77" text-anchor="middle" fill="#1E3A5F" font-family="Inter, Arial, sans-serif" font-size="13" font-weight="700">Charles Bloomberg</text>
<text x="270" y="97" text-anchor="middle" fill="#70839C" font-family="Inter, Arial, sans-serif" font-size="5.6">Product and engineering leader   New York, NY   charles@wisc.edu</text>
<text x="118" y="122" fill="#1F3C63" font-family="Inter, Arial, sans-serif" font-size="7.8" font-weight="700">PROFILE</text>
<rect x="118" y="129" width="258" height="4" rx="2" fill="#D3E2F5"/>
<rect x="118" y="137" width="242" height="4" rx="2" fill="#D3E2F5"/>
<rect x="118" y="145" width="210" height="4" rx="2" fill="#D3E2F5"/>
<text x="118" y="169" fill="#1F3C63" font-family="Inter, Arial, sans-serif" font-size="7.8" font-weight="700">EXPERIENCE</text>
<rect x="118" y="176" width="280" height="1.5" fill="#8CB3E0"/>
<text x="118" y="192" fill="#233548" font-family="Inter, Arial, sans-serif" font-size="7.2" font-weight="700">Senior Engineering Manager</text>
<rect x="118" y="199" width="246" height="4" rx="2" fill="#D3E2F5"/>
<rect x="118" y="207" width="230" height="4" rx="2" fill="#D3E2F5"/>
<rect x="118" y="215" width="252" height="4" rx="2" fill="#D3E2F5"/>
<rect x="92" y="276" width="356" height="66" fill="#E9EDF3"/>
<text x="92" y="329" fill="#18212F" font-family="Inter, Arial, sans-serif" font-size="26" font-weight="700">Modern</text>
</svg>
