<svg width="640" height="400" viewBox="0 0 640 400" fill="none" xmlns="http://www.w3.org/2000/svg">
  <rect width="640" height="400" rx="28" fill="#F8FAFC"/>
  <rect x="54" y="26" width="532" height="348" rx="24" fill="#F8FAFC" stroke="#CBD5E1"/>
  <rect x="92" y="54" width="356" height="222" fill="white"/>
  <rect x="92" y="54" width="106" height="222" fill="#E2E8F0"/>
  <rect x="112" y="74" width="62" height="8" rx="4" fill="#0F172A"/>
  <rect x="112" y="90" width="48" height="6" rx="3" fill="#64748B"/>
  <rect x="112" y="118" width="70" height="7" rx="3.5" fill="#334155"/>
  <rect x="112" y="132" width="54" height="5" rx="2.5" fill="#94A3B8"/>
  <rect x="112" y="142" width="62" height="5" rx="2.5" fill="#94A3B8"/>
  <rect x="112" y="168" width="68" height="7" rx="3.5" fill="#334155"/>
  <rect x="112" y="182" width="50" height="5" rx="2.5" fill="#94A3B8"/>
  <rect x="214" y="74" width="164" height="10" rx="5" fill="#0F172A"/>
  <rect x="214" y="92" width="98" height="6" rx="3" fill="#64748B"/>
  <rect x="214" y="122" width="216" height="5" rx="2.5" fill="#E2E8F0"/>
  <rect x="214" y="132" width="232" height="5" rx="2.5" fill="#E2E8F0"/>
  <rect x="214" y="142" width="204" height="5" rx="2.5" fill="#E2E8F0"/>
  <rect x="214" y="166" width="86" height="8" rx="4" fill="#334155"/>
  <rect x="214" y="182" width="228" height="5" rx="2.5" fill="#E2E8F0"/>
  <rect x="214" y="192" width="210" height="5" rx="2.5" fill="#E2E8F0"/>
  <rect x="92" y="276" width="356" height="66" fill="#E9EDF3"/>
  <text x="92" y="329" fill="#18212F" font-family="Inter, Arial, sans-serif" font-size="26" font-weight="700">Operations</text>
</svg>
