<svg width="640" height="400" viewBox="0 0 640 400" fill="none" xmlns="http://www.w3.org/2000/svg">
  <rect width="640" height="400" rx="28" fill="#F8FAFC"/>
  <rect x="54" y="26" width="532" height="348" rx="24" fill="#EEF2FF" stroke="#C7D2FE"/>
  <rect x="92" y="54" width="356" height="222" fill="white"/>
  <rect x="92" y="54" width="356" height="36" fill="#4338CA"/>
  <rect x="116" y="66" width="92" height="12" rx="6" fill="#E0E7FF"/>
  <rect x="214" y="66" width="70" height="12" rx="6" fill="#C7D2FE"/>
  <rect x="290" y="66" width="54" height="12" rx="6" fill="#A5B4FC"/>
  <rect x="118" y="108" width="86" height="7" rx="3.5" fill="#4338CA"/>
  <rect x="118" y="122" width="240" height="5" rx="2.5" fill="#E2E8F0"/>
  <rect x="118" y="132" width="228" height="5" rx="2.5" fill="#E2E8F0"/>
  <rect x="118" y="152" width="312" height="48" rx="12" fill="#EEF2FF"/>
  <rect x="132" y="166" width="86" height="20" rx="10" fill="#6366F1"/>
  <rect x="226" y="166" width="86" height="20" rx="10" fill="#818CF8"/>
  <rect x="320" y="166" width="86" height="20" rx="10" fill="#A5B4FC"/>
  <rect x="118" y="220" width="94" height="7" rx="3.5" fill="#4338CA"/>
  <rect x="118" y="234" width="248" height="5" rx="2.5" fill="#E2E8F0"/>
  <rect x="92" y="276" width="356" height="66" fill="#E9EDF3"/>
  <text x="92" y="329" fill="#18212F" font-family="Inter, Arial, sans-serif" font-size="26" font-weight="700">Product</text>
</svg>
