<svg width="640" height="400" viewBox="0 0 640 400" fill="none" xmlns="http://www.w3.org/2000/svg">
<rect width="640" height="400" rx="28" fill="#F8FAFC"/>
<rect x="54" y="26" width="532" height="348" rx="24" fill="#EEF2F7" stroke="#D7DEE9"/>
<rect x="92" y="54" width="356" height="222" fill="white"/>
<text x="270" y="88" text-anchor="middle" fill="#2F4057" font-family="Georgia, serif" font-size="14" font-weight="700">Charles Bloomberg</text>
<text x="270" y="104" text-anchor="middle" fill="#7B8794" font-family="Georgia, serif" font-size="5.8">New York City, United States   charlesbloomberg@wisc.edu   (621) 799-5548</text>
<line x1="114" y1="126" x2="426" y2="126" stroke="#E4E9F0"/>
<text x="118" y="145" fill="#44546A" font-family="Georgia, serif" font-size="8.2" font-weight="700">SUMMARY</text>
<line x1="118" y1="150" x2="398" y2="150" stroke="#5E6B7A" stroke-width="1"/>
<rect x="118" y="158" width="220" height="4" rx="2" fill="#C8D0DA"/>
<rect x="118" y="166" width="232" height="4" rx="2" fill="#C8D0DA"/>
<rect x="118" y="174" width="210" height="4" rx="2" fill="#C8D0DA"/>
<text x="118" y="198" fill="#44546A" font-family="Georgia, serif" font-size="8.2" font-weight="700">EXPERIENCE</text>
<line x1="118" y1="203" x2="398" y2="203" stroke="#5E6B7A" stroke-width="1"/>
<text x="118" y="219" fill="#39485B" font-family="Georgia, serif" font-size="7.6" font-weight="700">VP of Engineering</text>
<text x="318" y="219" fill="#6C7888" font-family="Georgia, serif" font-size="5.8">June 2020 - June 2021, New York, NY</text>
<rect x="118" y="226" width="244" height="4" rx="2" fill="#C8D0DA"/>
<rect x="118" y="234" width="226" height="4" rx="2" fill="#C8D0DA"/>
<rect x="92" y="276" width="356" height="66" fill="#E9EDF3"/>
<text x="92" y="329" fill="#18212F" font-family="Inter, Arial, sans-serif" font-size="26" font-weight="700">Professional</text>
</svg>
