<svg width="640" height="400" viewBox="0 0 640 400" fill="none" xmlns="http://www.w3.org/2000/svg">
<rect width="640" height="400" rx="28" fill="#F8FAFC"/>
<rect x="54" y="26" width="532" height="348" rx="24" fill="#EEF2F7" stroke="#D7DEE9"/>
<rect x="92" y="54" width="356" height="222" fill="white"/>
<rect x="92" y="54" width="102" height="222" fill="#EAF1FB"/>
<rect x="114" y="72" width="38" height="54" rx="11" fill="#A8C5F0"/>
<rect x="112" y="149" width="56" height="7" rx="3.5" fill="#2B56D9"/>
<rect x="112" y="167" width="46" height="7" rx="3.5" fill="#8093F3"/>
<rect x="112" y="187" width="58" height="7" rx="3.5" fill="#D1E1FA"/>
<rect x="112" y="203" width="50" height="7" rx="3.5" fill="#D1E1FA"/>
<rect x="112" y="219" width="44" height="7" rx="3.5" fill="#D1E1FA"/>
<text x="214" y="82" fill="#18212F" font-family="Inter, Arial, sans-serif" font-size="11.5" font-weight="700">Charles Bloomberg</text>
<rect x="214" y="92" width="84" height="5" rx="2.5" fill="#8B95A4"/>
<rect x="214" y="128" width="214" height="7" rx="3.5" fill="#162033"/>
<rect x="214" y="146" width="232" height="5" rx="2.5" fill="#E1E5EB"/>
<rect x="214" y="156" width="214" height="5" rx="2.5" fill="#E1E5EB"/>
<rect x="214" y="176" width="226" height="7" rx="3.5" fill="#162033"/>
<rect x="214" y="194" width="218" height="5" rx="2.5" fill="#E1E5EB"/>
<rect x="214" y="204" width="208" height="5" rx="2.5" fill="#E1E5EB"/>
<rect x="214" y="224" width="54" height="12" rx="6" fill="#D9E5FB"/>
<rect x="276" y="224" width="60" height="12" rx="6" fill="#D9E5FB"/>
<rect x="344" y="224" width="50" height="12" rx="6" fill="#D9E5FB"/>
<rect x="92" y="276" width="356" height="66" fill="#E9EDF3"/>
<text x="92" y="329" fill="#18212F" font-family="Inter, Arial, sans-serif" font-size="26" font-weight="700">Technical</text>
</svg>
