<svg width="640" height="400" viewBox="0 0 640 400" fill="none" xmlns="http://www.w3.org/2000/svg">
<rect width="640" height="400" rx="28" fill="#F8FAFC"/>
<rect x="54" y="26" width="532" height="348" rx="24" fill="#EEF2F7" stroke="#D7DEE9"/>
<rect x="92" y="54" width="356" height="222" fill="white"/>
<rect x="92" y="54" width="108" height="222" fill="#EFF1F5"/>
<text x="112" y="82" fill="#18212F" font-family="Inter, Arial, sans-serif" font-size="8" font-weight="700">PROFILE</text>
<rect x="112" y="92" width="64" height="5" rx="2.5" fill="#848D9A"/>
<rect x="112" y="120" width="70" height="7" rx="3.5" fill="#1A2235"/>
<rect x="112" y="137" width="54" height="5" rx="2.5" fill="#D3D8E0"/>
<rect x="112" y="148" width="58" height="5" rx="2.5" fill="#D3D8E0"/>
<rect x="112" y="159" width="52" height="5" rx="2.5" fill="#D3D8E0"/>
<text x="220" y="82" fill="#18212F" font-family="Inter, Arial, sans-serif" font-size="11.5" font-weight="700">Charles Bloomberg</text>
<rect x="220" y="92" width="132" height="5" rx="2.5" fill="#8B95A4"/>
<rect x="220" y="122" width="214" height="5" rx="2.5" fill="#E1E5EB"/>
<rect x="220" y="132" width="198" height="5" rx="2.5" fill="#E1E5EB"/>
<rect x="220" y="154" width="90" height="7" rx="3.5" fill="#1A2235"/>
<rect x="220" y="172" width="208" height="5" rx="2.5" fill="#E1E5EB"/>
<rect x="220" y="182" width="194" height="5" rx="2.5" fill="#E1E5EB"/>
<rect x="220" y="212" width="82" height="7" rx="3.5" fill="#1A2235"/>
<rect x="220" y="230" width="188" height="5" rx="2.5" fill="#E1E5EB"/>
<rect x="220" y="240" width="176" height="5" rx="2.5" fill="#E1E5EB"/>
<rect x="92" y="276" width="356" height="66" fill="#E9EDF3"/>
<text x="92" y="329" fill="#18212F" font-family="Inter, Arial, sans-serif" font-size="26" font-weight="700">Two-column</text>
</svg>
